<?xml version="1.0" standalone="no"?>
<!DOCTYPE svg PUBLIC "-//W3C//DTD SVG 20010904//EN"
 "http://www.w3.org/TR/2001/REC-SVG-20010904/DTD/svg10.dtd">
<svg version="1.0" xmlns="http://www.w3.org/2000/svg"
 width="360.000000pt" height="360.000000pt" viewBox="0 0 360.000000 360.000000"
 preserveAspectRatio="xMidYMid meet">
	<g transform="translate(0.000000,360.000000) scale(0.100000,-0.100000)" fill="#4299e1" stroke="none">
		<path d="M780 2444 c-51 -14 -106 -41 -98 -49 1 -2 28 1 58 6 100 16 241 -20 309 -78 80 -68 105 -207 52 -281 -15 -22 -18 -32 -9 -33 7 0 101 -2 208 -4 378 -7 682 -71 956 -200 l92 -43 -8 27 c-8 30 1 61 24 80 26 22 135 26 198 7 48 -14 66 -27 124 -89 127 -136 186 -253 186 -365 -1 -64 -29 -170 -41 -155 -4 4 -37 46 -73 93 -202 263 -484 438 -863 535 -174 45 -324 65 -534 72 l-174 6 22 -30 c15 -19 26 -55 32 -104 12 -86 43 -160 88 -211 l31 -36 -42 -7 c-49 -8 -108 -36 -128 -60 -12 -15 -11 -15 16 -8 48 13 358 7 524 -11 172 -19 381 -48 510 -72 233 -43 474 -155 566 -262 12 -13 26 -22 30 -19 5 3 27 39 48 81 34 65 40 88 44 156 3 48 0 99 -8 128 -64 237 -392 547 -735 694 -291 125 -580 184 -950 195 -165 4 -220 10 -255 23 -68 27 -137 31 -200 14z"/>
		<path d="M901 2227 c-86 -50 -52 -177 47 -177 78 0 121 96 70 155 -28 31 -83 41 -117 22z"/>
	</g>
</svg>
